<svg width="100" height="100" viewBox="0 0 100 100" fill="none" xmlns="http://www.w3.org/2000/svg">
<path d="M32.5 5L40 20H25L32.5 5Z" fill="#FF00F5"/>
<path d="M47.5 5L55 20H40L47.5 5Z" fill="#BD00FF"/>
<path d="M62.5 5L70 20H55L62.5 5Z" fill="#8000FF"/>
<path d="M77.5 5L85 20H70L77.5 5Z" fill="#5200FF"/>
<path d="M85 20L92.5 35H77.5L85 20Z" fill="#0500FF"/>
<path d="M77.5 35L85 50H70L77.5 35Z" fill="#0047FF"/>
<path d="M70 50L77.5 65H62.5L70 50Z" fill="#0085FF"/>
<path d="M55 50L62.5 65H47.5L55 50Z" fill="#00B2FF"/>
<path d="M40 50L47.5 65H32.5L40 50Z" fill="#00D1FF"/>
<path d="M32.5 65L40 80H25L32.5 65Z" fill="#00FF94"/>
<path d="M25 80L32.5 95H17.5L25 80Z" fill="#00FF47"/>
<path d="M32.5 5L47.5 5L40 20L32.5 5Z" fill="#DB00FF"/>
<path d="M47.5 5L62.5 5L55 20L47.5 5Z" fill="#9E00FF"/>
<path d="M62.5 5L77.5 5L70 20L62.5 5Z" fill="#7000FF"/>
<path d="M70 20H85L77.5 35L70 20Z" fill="#4200FF"/>
<path d="M77.5 35H92.5L85 50L77.5 35Z" fill="#0029FF"/>
<path d="M70 50H85L77.5 65L70 50Z" fill="#0066FF"/>
<path d="M55 50H70L62.5 65L55 50Z" fill="#0094FF"/>
<path d="M40 50H55L47.5 65L40 50Z" fill="#00C2FF"/>
<path d="M32.5 65H47.5L40 80L32.5 65Z" fill="#00F0FF"/>
<path d="M25 80H40L32.5 95L25 80Z" fill="#00FF75"/>
<path d="M82.5 100C92.165 100 100 92.165 100 82.5C100 72.835 92.165 65 82.5 65C72.835 65 65 72.835 65 82.5C65 92.165 72.835 100 82.5 100Z" fill="#00E0FF"/>
<rect x="81.3333" y="93" width="23.3333" height="2.33333" rx="1.16667" transform="rotate(-90 81.3333 93)" fill="white"/>
<rect x="80.75" y="93.4667" width="11.6667" height="2.33333" rx="1.16667" transform="rotate(-45 80.75 93.4667)" fill="white"/>
<rect x="82.325" y="95.1" width="11.6667" height="2.33333" rx="1.16667" transform="rotate(-135 82.325 95.1)" fill="white"/>
</svg>
