<svg width="961" height="689" viewBox="0 0 961 689" fill="none" xmlns="http://www.w3.org/2000/svg">
<g clip-path="url(#clip0)">
<rect width="756.88" height="526.74" rx="11" fill="white"/>
<rect x="1" y="3" width="753" height="43" rx="4" fill="#FF00FF" fill-opacity="0.5"/>
<path d="M956.427 224.915C943.171 271.527 904.464 304.156 864.087 331.874C858.45 335.744 852.81 339.526 847.169 343.219C847.131 343.236 847.091 343.272 847.053 343.29C846.781 343.466 846.509 343.643 846.256 343.821C845.092 344.582 843.928 345.343 842.773 346.095L843.407 346.384C843.407 346.384 844.03 346.719 843.349 346.438C843.146 346.352 842.933 346.274 842.731 346.188C819.275 336.599 795.402 326.304 777.426 308.342C758.779 289.689 747.882 260.433 757.979 235.929C759.307 232.719 760.983 229.669 762.978 226.836C763.797 225.648 764.679 224.511 765.597 223.395C771.167 216.506 778.446 211.244 786.688 208.151C794.929 205.058 803.834 204.245 812.488 205.797C821.142 207.349 829.231 211.209 835.925 216.98C842.619 222.751 847.676 230.225 850.575 238.634C853.541 210.64 830.767 187.192 808.851 169.89C786.925 152.597 762.01 133.765 757.771 105.927C755.404 90.438 760.718 75.4279 770.398 63.3783C770.698 63.0122 770.997 62.6466 771.306 62.2905C783.09 48.2563 799.663 39.2444 817.716 37.0548C851.337 33.5132 883.995 51.5507 908.42 75.2439C947.731 113.365 971.497 171.918 956.427 224.915Z" fill="#EE00FF"/>
<path d="M893.232 163.948C899.684 174.123 904.638 185.197 907.938 196.822C910.727 207.211 911.969 217.966 911.622 228.727C911.017 250.848 904.302 272.464 893.736 291.717C885.562 306.315 875.6 319.808 864.087 331.874C858.45 335.745 852.81 339.526 847.169 343.219C847.131 343.236 847.092 343.272 847.053 343.29C846.781 343.466 846.509 343.643 846.257 343.821C845.092 344.582 843.928 345.343 842.773 346.095C842.773 346.095 844.03 346.719 843.349 346.438C843.146 346.352 842.933 346.274 842.731 346.188C844.833 328.718 842.774 310.993 836.725 294.496C830.676 277.999 820.815 263.212 807.967 251.374C795.087 239.716 779.672 231.308 762.978 226.836C763.797 225.648 764.679 224.511 765.597 223.396C772.045 225.228 778.32 227.635 784.349 230.588C805.903 241.078 823.551 258.324 834.681 279.772C844.67 299.247 848.968 321.206 847.073 343.072C848.037 342.186 849.002 341.282 849.937 340.386C867.762 323.543 883.593 304.21 894.307 281.898C903.602 263.003 908.171 242.081 907.61 220.976C906.736 197.962 897.689 176.645 884.59 158.088C870.559 138.228 852.968 120.656 834.183 105.434C814.943 89.8146 793.889 76.6402 771.492 66.2046C770.986 65.9656 770.591 65.539 770.388 65.013C770.184 64.487 770.188 63.9018 770.398 63.3785C770.548 62.9089 770.874 62.5179 771.306 62.2907C771.528 62.1935 771.769 62.1485 772.011 62.1589C772.253 62.1693 772.49 62.2349 772.703 62.3508C775.468 63.6412 778.215 64.9492 780.939 66.3137C803.628 77.6806 824.837 91.8603 844.077 108.527C862.662 124.587 880.158 142.935 893.232 163.948Z" fill="white"/>
<path d="M755.363 42.9428H1.50946V46.0052H755.363V42.9428Z" fill="#3F3D56"/>
<path d="M679.192 32.1631C684.198 32.1631 688.256 28.0498 688.256 22.9758C688.256 17.9018 684.198 13.7885 679.192 13.7885C674.186 13.7885 670.128 17.9018 670.128 22.9758C670.128 28.0498 674.186 32.1631 679.192 32.1631Z" fill="#3F3D56"/>
<path d="M705.252 32.1631C710.258 32.1631 714.316 28.0498 714.316 22.9758C714.316 17.9018 710.258 13.7885 705.252 13.7885C700.246 13.7885 696.188 17.9018 696.188 22.9758C696.188 28.0498 700.246 32.1631 705.252 32.1631Z" fill="#3F3D56"/>
<path d="M731.312 32.1631C736.318 32.1631 740.376 28.0498 740.376 22.9758C740.376 17.9018 736.318 13.7885 731.312 13.7885C726.306 13.7885 722.248 17.9018 722.248 22.9758C722.248 28.0498 726.306 32.1631 731.312 32.1631Z" fill="#3F3D56"/>
<path d="M746.297 -3.05176e-05H10.5646C7.76163 0.00429155 5.07485 1.13575 3.09413 3.14594C1.11341 5.15614 0.000615413 7.88079 0 10.7218V516.028C0.00353123 518.867 1.11771 521.588 3.0982 523.596C5.07869 525.603 7.7638 526.732 10.5646 526.736H560.737C560.598 525.721 560.487 524.693 560.376 523.678H10.5646C8.56327 523.677 6.64442 522.87 5.22924 521.436C3.81405 520.001 3.01817 518.056 3.01633 516.028V10.7218C3.01763 8.69184 3.81289 6.74523 5.22779 5.30854C6.6427 3.87186 8.56183 3.0623 10.5646 3.05731H746.297C748.301 3.05943 750.224 3.86761 751.641 5.30452C753.059 6.74143 753.856 8.6897 753.858 10.7218V320.415C754.859 320.485 755.874 320.57 756.875 320.668V10.7218C756.874 7.87854 755.759 5.15216 753.775 3.14173C751.792 1.1313 749.102 0.00127613 746.297 -3.05176e-05Z" fill="#3F3D56"/>
<path d="M560.308 527.428C560.168 526.425 560.057 525.407 559.945 524.404C559.917 524.25 559.903 524.111 559.889 523.958C559.485 520.292 559.192 516.59 559.011 512.85C558.245 516.069 557.553 519.303 556.935 522.55C556.976 523.024 557.018 523.484 557.073 523.958C557.088 524.111 557.101 524.25 557.129 524.404C557.241 525.407 557.353 526.425 557.492 527.428C557.882 530.536 558.356 533.602 558.914 536.655C558.927 536.529 558.942 536.418 558.955 536.292C559.346 533.351 559.792 530.425 560.321 527.498C560.31 527.476 560.306 527.452 560.308 527.428ZM756.993 320.78C755.989 320.683 754.971 320.599 753.967 320.53C753.814 320.516 753.675 320.516 753.522 320.502C749.061 320.167 744.545 320 740 320C714.272 320.008 688.831 325.409 665.32 335.855C641.808 346.3 620.748 361.558 603.498 380.644C586.248 399.73 573.192 422.219 565.171 446.662C557.151 471.104 554.345 496.956 556.935 522.55C556.976 523.024 557.018 523.484 557.073 523.958C557.088 524.111 557.101 524.25 557.129 524.404C557.241 525.407 557.352 526.425 557.492 527.428C557.882 530.536 558.356 533.602 558.914 536.655C564.452 566.915 577.459 595.314 596.755 619.275C616.051 643.236 641.025 662 669.411 673.867C672.311 675.065 675.238 676.208 678.207 677.254C680.159 677.964 682.11 678.619 684.089 679.247C685.511 679.707 686.947 680.139 688.383 680.557C690.418 681.156 692.481 681.727 694.558 682.257C720.036 688.793 746.624 689.763 772.51 685.102C798.397 680.441 822.976 670.258 844.573 655.247H844.588C869.079 638.339 889.101 615.74 902.933 589.391C916.765 563.042 923.994 533.73 924 503.972C924 408.251 850.512 329.38 756.993 320.78ZM843.375 652.696C834.858 658.642 825.842 663.842 816.43 668.236C809.666 671.401 802.711 674.138 795.604 676.431C763.537 686.749 729.23 687.94 696.523 679.874C694.07 679.274 691.636 678.619 689.219 677.909C686.836 677.212 684.475 676.473 682.138 675.693C680.228 675.038 678.318 674.369 676.423 673.658C674.443 672.905 672.492 672.125 670.541 671.316C641.187 659.086 615.559 639.366 596.217 614.128C576.875 588.89 564.498 559.018 560.321 527.498C560.31 527.476 560.306 527.452 560.308 527.428C560.168 526.425 560.057 525.407 559.945 524.404C559.917 524.25 559.904 524.111 559.889 523.958C559.485 520.292 559.192 516.59 559.011 512.85C558.858 509.909 558.784 506.95 558.788 503.972C558.841 455.935 577.949 409.88 611.922 375.913C645.894 341.946 691.956 322.84 740 322.787C744.545 322.787 749.061 322.955 753.522 323.289C753.675 323.303 753.814 323.317 753.968 323.331C754.971 323.401 755.989 323.484 756.993 323.582C848.979 332.167 921.212 409.784 921.212 503.972C921.209 533.203 914.127 561.998 900.572 587.897C887.017 613.796 867.392 636.029 843.375 652.696ZM676.423 673.658C674.443 672.905 672.492 672.125 670.541 671.316C641.187 659.086 615.559 639.366 596.217 614.128C576.875 588.89 564.498 559.018 560.321 527.498C559.792 530.425 559.346 533.351 558.955 536.292C558.942 536.418 558.928 536.529 558.914 536.655C564.452 566.915 577.459 595.314 596.755 619.275C616.051 643.236 641.025 662 669.411 673.867C672.311 675.065 675.238 676.208 678.207 677.254C677.594 676.069 676.994 674.87 676.423 673.658ZM753.521 320.502C749.061 320.167 744.545 320 740 320C714.272 320.008 688.831 325.409 665.319 335.855C641.808 346.3 620.748 361.558 603.498 380.644C586.248 399.73 573.192 422.219 565.171 446.662C557.151 471.104 554.345 496.956 556.935 522.55C556.976 523.024 557.018 523.484 557.073 523.958C557.088 524.111 557.101 524.25 557.129 524.404H559.945C559.917 524.25 559.903 524.111 559.889 523.958C559.485 520.292 559.192 516.59 559.011 512.85C558.858 509.909 558.784 506.95 558.788 503.972C558.84 455.935 577.949 409.88 611.922 375.913C645.894 341.946 691.956 322.84 740 322.787C744.545 322.787 749.061 322.955 753.521 323.289C753.675 323.303 753.814 323.317 753.967 323.331V320.53C753.814 320.516 753.675 320.516 753.522 320.502H753.521Z" fill="#3F3D56"/>
<path d="M921 504C921.028 527.252 916.564 550.29 907.853 571.848C907.832 571.896 907.816 571.939 907.794 571.987V571.993C901.939 586.428 894.237 600.044 884.88 612.498C883.075 614.908 881.214 617.268 879.295 619.578C878.593 620.424 877.881 621.264 877.169 622.094C873.501 626.352 869.641 630.43 865.591 634.331C864.649 635.241 863.696 636.141 862.732 637.03C862.507 637.238 862.282 637.442 862.057 637.651C857.34 641.961 852.397 646.019 847.25 649.807C843.796 652.361 840.251 654.787 836.615 657.084C835.817 657.593 835.014 658.093 834.205 658.584C832.802 659.44 831.387 660.278 829.959 661.095C828.095 662.166 826.209 663.203 824.299 664.206C823.528 664.619 822.751 665.015 821.975 665.411C820.839 665.995 819.699 666.557 818.547 667.109C818.349 667.205 818.151 667.302 817.953 667.393C817.203 667.757 816.443 668.11 815.682 668.464C805.779 673.031 795.48 676.686 784.913 679.383C784.854 679.399 784.8 679.409 784.741 679.425C784.05 679.602 783.354 679.773 782.658 679.939C782.139 680.068 781.614 680.191 781.089 680.309C781.024 680.33 780.958 680.346 780.891 680.357C779.815 680.609 778.738 680.85 777.651 681.069C777.041 681.198 776.43 681.326 775.82 681.45C775.45 681.53 775.075 681.6 774.706 681.669C774.24 681.76 773.779 681.846 773.314 681.937C773.057 681.991 772.799 682.033 772.537 682.076C771.948 682.183 771.359 682.29 770.775 682.392C769.779 682.563 768.772 682.729 767.771 682.879C767.043 682.992 766.32 683.099 765.592 683.201C764.735 683.324 763.878 683.436 763.016 683.543C762.78 683.581 762.545 683.608 762.309 683.634C762.004 683.672 761.699 683.709 761.393 683.747C760.777 683.822 760.162 683.892 759.54 683.956C759.219 683.993 758.903 684.025 758.582 684.058C757.971 684.122 757.361 684.181 756.75 684.234C755.963 684.309 755.176 684.373 754.384 684.438C753.42 684.513 752.461 684.582 751.492 684.641C750.871 684.679 750.249 684.716 749.623 684.748C748.027 684.834 746.431 684.893 744.825 684.936C744.027 684.957 743.224 684.973 742.42 684.984H742.404C741.606 684.995 740.803 685 740 685C731.86 685.003 723.729 684.46 715.661 683.372C709.744 682.58 703.921 681.505 698.193 680.148C697.963 680.095 697.733 680.041 697.508 679.982C696.93 679.848 696.357 679.704 695.784 679.559C695.275 679.431 694.771 679.297 694.263 679.163C681.152 675.751 668.469 670.867 656.456 664.603C656.397 664.571 656.333 664.538 656.274 664.506C655.926 664.324 655.583 664.148 655.241 663.96C654.486 663.564 653.734 663.16 652.986 662.75C648.729 660.41 644.581 657.907 640.541 655.242C639.502 654.562 638.474 653.871 637.457 653.17C637.13 652.945 636.809 652.72 636.487 652.495C636.15 652.259 635.813 652.024 635.481 651.788C634.597 651.162 633.719 650.528 632.846 649.887C629.231 647.231 625.724 644.445 622.323 641.528C610.271 631.206 599.62 619.351 590.643 606.265C587.51 601.703 584.587 596.994 581.872 592.138C566.826 565.202 558.95 534.853 559 504C559 404.038 640.038 323 740 323C839.962 323 921 404.038 921 504Z" fill="#6C63FF"/>
<g style="mix-blend-mode:screen" opacity="0.2">
<path d="M769.105 679.982C769.683 679.848 770.256 679.704 770.829 679.559C771.338 679.431 771.841 679.297 772.35 679.163C772.377 678.097 772.414 676.925 772.452 675.655C772.768 665.716 773.512 649.716 775.268 630.438C775.365 629.404 775.461 628.363 775.558 627.316C776.184 620.782 776.918 613.912 777.796 606.79C777.823 606.554 777.855 606.324 777.882 606.088C778.594 600.316 779.403 594.388 780.313 588.347C780.95 584.122 781.639 579.85 782.38 575.532C782.434 575.233 782.487 574.927 782.541 574.627C782.755 573.38 782.974 572.137 783.199 570.884C783.826 567.398 784.495 563.891 785.197 560.383C787.665 548.045 790.605 535.632 794.113 523.557C797.676 511.033 802.064 498.759 807.249 486.816C811.27 477.537 816.06 468.612 821.568 460.132C821.648 460.008 821.729 459.891 821.809 459.767C828.851 449.159 836.899 440.157 846.089 433.426L844.182 430.824C835.379 437.276 827.303 445.862 819.956 456.581C819.919 456.635 819.886 456.683 819.849 456.736C814.324 464.929 809.502 473.575 805.433 482.58C799.986 494.625 795.39 507.038 791.682 519.728C788.169 531.519 785.018 544.295 782.23 558.054C781.25 562.9 780.315 567.866 779.424 572.951C779.274 573.819 779.124 574.686 778.974 575.559C778.974 575.57 778.969 575.586 778.969 575.597C778.739 576.935 778.519 578.274 778.294 579.629C777.737 583.04 777.212 586.425 776.72 589.782C775.959 594.955 775.272 600.039 774.658 605.033C774.455 606.683 774.258 608.32 774.069 609.944C773.801 612.236 773.548 614.497 773.309 616.729C772.971 619.835 772.662 622.874 772.382 625.848L772.302 626.668C772.259 627.139 772.216 627.61 772.173 628.076C769.999 651.526 769.319 670.466 769.105 679.982Z" fill="#00FF38"/>
</g>
<g style="mix-blend-mode:screen" opacity="0.2">
<path d="M810.156 664.603C810.215 664.571 810.28 664.538 810.338 664.506C811.442 663.933 812.534 663.35 813.626 662.75C813.985 658.477 814.467 653.78 815.099 648.843C815.233 647.825 815.367 646.792 815.517 645.753C815.592 645.196 815.672 644.634 815.752 644.066C816.384 639.718 817.134 635.23 818.034 630.721C821.691 612.322 827.764 593.515 837.847 581.905C838.388 581.278 838.94 580.679 839.513 580.095C840.933 578.619 842.475 577.267 844.123 576.052L842.217 573.455C839.916 575.156 837.798 577.093 835.898 579.233C835.229 579.977 834.575 580.752 833.938 581.557C824.658 593.236 818.864 610.528 815.254 627.648C814.312 632.114 813.519 636.574 812.845 640.917C812.673 642.053 812.509 643.177 812.352 644.291C811.308 651.649 810.617 658.6 810.156 664.603Z" fill="#00FF38"/>
</g>
<path opacity="0.2" d="M864.097 433.351C872.995 433.351 880.209 426.137 880.209 417.239C880.209 408.34 872.995 401.126 864.097 401.126C855.198 401.126 847.984 408.34 847.984 417.239C847.984 426.137 855.198 433.351 864.097 433.351Z" fill="black"/>
<g style="mix-blend-mode:screen" opacity="0.2">
<path d="M858.908 572.051C867.806 572.051 875.02 564.838 875.02 555.939C875.02 547.04 867.806 539.826 858.908 539.826C850.009 539.826 842.795 547.04 842.795 555.939C842.795 564.838 850.009 572.051 858.908 572.051Z" fill="#00FF38"/>
</g>
<path opacity="0.2" d="M800.129 444.303C803.546 463.58 796.004 481.034 796.004 481.034C796.004 481.034 782.921 467.235 779.505 447.959C776.088 428.682 783.63 411.227 783.63 411.227C783.63 411.227 796.713 425.026 800.129 444.303Z" fill="black"/>
<g style="mix-blend-mode:screen" opacity="0.2">
<path d="M853.678 490.061C835.292 496.785 816.816 492.47 816.816 492.47C816.816 492.47 828.15 477.255 846.537 470.532C864.923 463.809 883.399 468.123 883.399 468.123C883.399 468.123 872.064 483.338 853.678 490.061Z" fill="#00FF38"/>
</g>
<g style="mix-blend-mode:screen" opacity="0.2">
<path d="M856.796 612.885C843.908 617.598 830.94 614.524 830.94 614.524C830.94 614.524 838.866 603.809 851.754 599.097C864.641 594.384 877.61 597.458 877.61 597.458C877.61 597.458 869.683 608.173 856.796 612.885Z" fill="#00FF38"/>
</g>
<path d="M794.6 610.174L795.253 610.512C795.189 611.208 795.034 611.636 794.6 610.174Z" fill="#2F2E41"/>
<path d="M795.461 610.399C795.466 610.474 795.477 610.554 795.482 610.629L795.253 610.512C795.259 610.442 795.264 610.367 795.275 610.292C795.328 609.355 795.264 608.246 795.461 610.399Z" fill="#2F2E41"/>
<path d="M725.907 584.781C774.472 584.781 813.842 545.411 813.842 496.846C813.842 448.281 774.472 408.912 725.907 408.912C677.343 408.912 637.973 448.281 637.973 496.846C637.973 545.411 677.343 584.781 725.907 584.781Z" fill="#2F2E41"/>
<path d="M733.146 581.197C762.557 581.197 786.399 557.354 786.399 527.944C786.399 498.533 762.557 474.691 733.146 474.691C703.735 474.691 679.893 498.533 679.893 527.944C679.893 557.354 703.735 581.197 733.146 581.197Z" fill="#FFCA7B"/>
<path d="M854.742 630.009L854.678 630.025L842.292 632.997L816.502 639.188L812.984 640.034L773.764 649.443L770.433 650.246L675.28 673.08C668.847 670.619 662.562 667.789 656.457 664.603C656.398 664.571 656.333 664.538 656.275 664.506C655.926 664.324 655.584 664.148 655.241 663.96C654.486 663.564 653.734 663.16 652.987 662.75C648.729 660.41 644.581 657.907 640.541 655.242C639.503 654.562 638.474 653.871 637.457 653.17C637.13 652.945 636.809 652.72 636.488 652.495C636.15 652.259 635.813 652.024 635.481 651.788C634.597 651.162 633.719 650.528 632.846 649.887C642.089 633.088 664.098 621.923 686.107 615.813C702.719 611.197 706.371 596.026 706.055 582.526C705.974 579.447 705.713 576.375 705.273 573.326C704.602 568.474 703.535 563.685 702.081 559.007L755.337 560.785L760.831 573.444C760.681 574.835 760.633 576.234 760.687 577.632C761.104 588.015 767.514 594.73 775.424 599.063C776.452 599.625 777.507 600.15 778.578 600.637C791.548 606.533 806.815 606.934 806.815 606.934C811.464 606.42 816.16 606.509 820.786 607.197C821.911 607.368 823.003 607.573 824.063 607.813C830.254 609.196 836.102 611.813 841.258 615.508C843.228 616.909 845.091 618.453 846.833 620.129C849.929 623.027 852.593 626.354 854.742 630.009Z" fill="#FFCA7B"/>
<path d="M862.732 637.03C862.507 637.238 862.282 637.442 862.057 637.651C857.34 641.961 852.397 646.019 847.251 649.807C843.797 652.361 840.252 654.787 836.616 657.084C835.818 657.593 835.014 658.093 834.206 658.584C832.803 659.44 831.387 660.278 829.959 661.095C828.096 662.166 826.209 663.203 824.299 664.206C823.528 664.619 822.752 665.015 821.975 665.411C820.84 665.995 819.699 666.557 818.548 667.109C818.35 667.205 818.152 667.302 817.953 667.393L815.688 665.513L842.292 632.997L847.642 626.459C847.642 626.459 849.778 626.459 854.678 630.025C857.386 632.041 859.945 634.249 862.336 636.633C862.464 636.767 862.598 636.896 862.732 637.03Z" fill="#D0CDE1"/>
<path d="M862.357 636.665C862.285 637.002 862.185 637.331 862.057 637.651C857.34 641.961 852.397 646.019 847.251 649.807C842.785 651.416 838.152 652.518 833.44 653.089C833.44 653.089 833.842 655.103 834.206 658.584C832.803 659.44 831.387 660.278 829.959 661.095C828.096 662.166 826.209 663.203 824.299 664.206C823.528 664.619 822.751 665.015 821.975 665.411C820.84 665.995 819.699 666.557 818.548 667.109C818.35 667.205 818.151 667.302 817.953 667.393C817.204 667.757 816.443 668.11 815.683 668.464C805.78 673.031 795.48 676.686 784.913 679.383C784.854 679.399 784.8 679.409 784.742 679.425C784.051 679.602 783.355 679.773 782.658 679.939C782.139 680.068 781.614 680.191 781.089 680.309C781.025 680.33 780.958 680.346 780.891 680.357C779.815 680.609 778.739 680.85 777.651 681.069C777.041 681.198 776.431 681.326 775.82 681.45C775.451 681.53 775.076 681.6 774.706 681.669C774.24 681.76 773.78 681.846 773.314 681.937C773.057 681.99 772.8 682.033 772.537 682.076C771.948 682.183 771.359 682.29 770.776 682.392C769.78 682.563 768.773 682.729 767.771 682.879C767.043 682.992 766.32 683.099 765.592 683.201C764.735 683.324 763.878 683.436 763.016 683.543C762.781 683.581 762.545 683.608 762.309 683.634C762.004 683.672 761.699 683.709 761.394 683.747C760.778 683.822 760.162 683.891 759.541 683.956C759.219 683.993 758.904 684.025 758.582 684.057C757.972 684.122 757.361 684.181 756.751 684.234C755.964 684.309 755.176 684.373 754.384 684.438C753.42 684.513 752.461 684.582 751.492 684.641C750.871 684.679 750.25 684.716 749.623 684.748C748.027 684.834 746.432 684.893 744.825 684.936C744.027 684.957 743.224 684.973 742.421 684.984H742.405C741.607 684.995 740.804 685 740 685C731.86 685.003 723.729 684.46 715.662 683.372C709.744 682.58 703.922 681.505 698.194 680.148C697.963 680.095 697.733 680.041 697.508 679.982C696.93 679.848 696.357 679.704 695.784 679.559C695.275 679.431 694.772 679.297 694.263 679.163C681.152 675.751 668.469 670.867 656.457 664.603C656.398 664.571 656.333 664.538 656.275 664.506C655.926 664.324 655.584 664.148 655.241 663.96C684.635 657.111 731.084 646.31 771.391 637.056C772.521 636.799 773.644 636.542 774.76 636.285C789.647 632.869 803.591 629.688 815.388 627.026C816.609 626.753 817.805 626.486 818.976 626.223C831.651 623.374 841.494 621.211 846.833 620.129C848.272 619.8 849.727 619.545 851.192 619.363L862.336 636.633L862.357 636.665Z" fill="#2F2E41"/>
<path d="M645.457 459.427C659.923 459.427 671.65 447.7 671.65 433.234C671.65 418.768 659.923 407.041 645.457 407.041C630.991 407.041 619.264 418.768 619.264 433.234C619.264 447.7 630.991 459.427 645.457 459.427Z" fill="#2F2E41"/>
<path d="M806.358 451.944C820.824 451.944 832.551 440.216 832.551 425.75C832.551 411.284 820.824 399.557 806.358 399.557C791.892 399.557 780.165 411.284 780.165 425.75C780.165 440.216 791.892 451.944 806.358 451.944Z" fill="#2F2E41"/>
<path d="M778.294 414.525C778.295 408.064 780.683 401.832 785 397.026C789.317 392.22 795.257 389.178 801.681 388.486C798.023 388.087 794.322 388.462 790.819 389.589C787.315 390.715 784.089 392.567 781.349 395.023C778.61 397.48 776.419 400.486 774.919 403.846C773.418 407.206 772.643 410.845 772.643 414.525C772.643 418.204 773.418 421.843 774.919 425.203C776.419 428.563 778.61 431.569 781.349 434.026C784.089 436.482 787.315 438.334 790.819 439.461C794.322 440.587 798.023 440.963 801.681 440.563C795.257 439.871 789.317 436.83 785 432.023C780.683 427.217 778.295 420.985 778.294 414.525Z" fill="#2F2E41"/>
<path d="M616.19 454.421C611.669 449.806 609.014 443.683 608.734 437.229C608.453 430.775 610.568 424.445 614.672 419.455C611.779 421.73 609.399 424.588 607.685 427.844C605.971 431.101 604.962 434.681 604.725 438.353C604.487 442.025 605.026 445.706 606.306 449.156C607.586 452.606 609.579 455.747 612.154 458.376C614.729 461.004 617.829 463.06 621.252 464.411C624.675 465.761 628.345 466.374 632.021 466.212C635.697 466.049 639.297 465.114 642.588 463.467C645.878 461.82 648.785 459.498 651.118 456.652C646.046 460.653 639.674 462.639 633.227 462.227C626.779 461.815 620.712 459.035 616.19 454.421Z" fill="#2F2E41"/>
<path d="M725.907 455.685C694.909 455.685 669.779 470.344 669.779 488.427C669.779 496.518 674.83 503.912 683.168 509.625L693.974 501.796L691.035 514.061C692.254 514.626 693.499 515.173 694.798 515.679L710.94 496.846V519.982C715.89 520.775 720.895 521.172 725.907 521.168C756.906 521.168 782.036 506.51 782.036 488.427C782.036 470.344 756.906 455.685 725.907 455.685Z" fill="#2F2E41"/>
<path d="M780.165 425.75C780.165 425.75 776.097 444.46 801.517 451.943L780.165 425.75Z" fill="#2F2E41"/>
<path d="M669.779 429.156C669.779 429.156 679.134 450.073 651.07 459.427L669.779 429.156Z" fill="#2F2E41"/>
<path d="M683.652 548.851C686.012 548.19 686.64 543.062 685.054 537.398C683.469 531.734 680.27 527.677 677.91 528.338C675.55 528.999 674.922 534.126 676.508 539.791C678.093 545.455 681.292 549.511 683.652 548.851Z" fill="#FFCA7B"/>
<path d="M791.716 529.992C792.077 524.121 790.387 519.239 787.941 519.088C785.495 518.938 783.219 523.575 782.857 529.446C782.495 535.317 784.185 540.199 786.632 540.349C789.078 540.5 791.354 535.863 791.716 529.992Z" fill="#FFCA7B"/>
<path d="M889.076 364.65C945.435 365.625 945.426 450.595 889.075 451.562C832.718 450.586 832.727 365.617 889.076 364.65Z" fill="white"/>
<path d="M889.076 364.65C945.435 365.625 945.426 450.595 889.075 451.562C832.718 450.586 832.727 365.617 889.076 364.65Z" fill="white"/>
<path d="M889.076 364.65C945.435 365.625 945.426 450.595 889.075 451.562C832.718 450.586 832.727 365.617 889.076 364.65Z" fill="#FF00FF"/>
<path d="M889.076 364.65C945.435 365.625 945.426 450.595 889.075 451.562C832.718 450.586 832.727 365.617 889.076 364.65Z" fill="#FF00FF"/>
<path d="M889.077 431.768C888.278 431.767 887.512 431.445 886.947 430.872C886.382 430.3 886.064 429.523 886.063 428.714V412.521C886.063 412.16 885.921 411.814 885.67 411.559C885.418 411.304 885.077 411.16 884.721 411.16H868.745C867.946 411.16 867.179 410.838 866.614 410.265C866.049 409.692 865.731 408.916 865.731 408.105C865.731 407.295 866.049 406.518 866.614 405.946C867.179 405.373 867.946 405.051 868.745 405.051H884.721C885.077 405.051 885.418 404.907 885.67 404.652C885.921 404.397 886.063 404.051 886.063 403.691V387.497C886.063 386.687 886.381 385.91 886.946 385.338C887.511 384.765 888.277 384.443 889.076 384.443C889.875 384.443 890.642 384.765 891.207 385.338C891.772 385.91 892.089 386.687 892.089 387.497V403.691C892.09 404.051 892.231 404.397 892.483 404.652C892.735 404.907 893.076 405.051 893.432 405.051H909.408C910.207 405.051 910.974 405.373 911.539 405.946C912.104 406.518 912.422 407.295 912.422 408.105C912.422 408.916 912.104 409.692 911.539 410.265C910.974 410.838 910.207 411.16 909.408 411.16H893.432C893.076 411.16 892.735 411.304 892.483 411.559C892.231 411.814 892.09 412.16 892.089 412.521V428.714C892.088 429.523 891.771 430.3 891.206 430.872C890.641 431.445 889.875 431.767 889.077 431.768Z" fill="white"/>
</g>
<defs>
<clipPath id="clip0">
<rect width="961" height="689" fill="white"/>
</clipPath>
</defs>
</svg>
