<svg width="440" height="440" viewBox="0 0 440 440" fill="none" xmlns="http://www.w3.org/2000/svg">
<path d="M440 0H0V440H440V0Z" fill="#FFDD00"/>
<path d="M439 1H1V439H439V1Z" stroke="black" stroke-width="2"/>
<path d="M312.244 304.022C319.423 304.022 325.244 298.201 325.244 291.022C325.244 283.842 319.423 278.022 312.244 278.022C305.064 278.022 299.244 283.842 299.244 291.022C299.244 298.201 305.064 304.022 312.244 304.022Z" fill="#CCCCCC"/>
<path d="M304.24 260.14C311.42 260.14 317.24 254.32 317.24 247.14C317.24 239.96 311.42 234.14 304.24 234.14C297.06 234.14 291.24 239.96 291.24 247.14C291.24 254.32 297.06 260.14 304.24 260.14Z" fill="#CCCCCC"/>
<path d="M307.244 347.022C314.423 347.022 320.244 341.201 320.244 334.022C320.244 326.842 314.423 321.022 307.244 321.022C300.064 321.022 294.244 326.842 294.244 334.022C294.244 341.201 300.064 347.022 307.244 347.022Z" fill="#CCCCCC"/>
<path d="M353.514 278.02C328.684 173.75 349.394 81.62 359.454 46.86C360.053 44.7764 360.159 42.5821 359.765 40.4503C359.371 38.3184 358.487 36.3073 357.183 34.5755C355.879 32.8437 354.19 31.4385 352.25 30.471C350.31 29.5034 348.171 28.9998 346.003 29H104.964C102.757 29.0022 100.582 29.5249 98.615 30.5257C96.648 31.5266 94.9446 32.9773 93.6436 34.76C83.9136 48.14 63.7237 92.51 86.274 215.28C98.334 280.96 98.154 325.74 94.2139 355.24C92.0035 371.85 88.5938 383.61 85.5035 391.54L85.1739 392.38C84.523 393.985 84.1836 395.699 84.1739 397.43C84.1511 399.385 84.543 401.323 85.3238 403.116C86.1046 404.908 87.2565 406.515 88.7037 407.83C89.6472 408.714 90.7152 409.455 91.8736 410.03C92.8353 410.521 93.8528 410.893 94.9038 411.14C95.9742 411.401 97.072 411.532 98.174 411.53H335.494C335.524 411.53 335.604 411.54 335.744 411.54C337.264 411.54 345.194 411.1 352.384 402.44C363.284 389.31 372.334 357.07 353.514 278.02ZM350.624 400.83C343.574 409.39 335.924 409.17 335.554 409.16H98.174C96.273 409.159 94.402 408.693 92.7232 407.803C91.0444 406.912 89.6094 405.623 88.5435 404.05C87.606 402.69 86.9762 401.141 86.6982 399.513C86.4202 397.884 86.5005 396.214 86.9336 394.62C87.047 394.157 87.1941 393.702 87.3736 393.26C90.9033 384.19 93.5196 374.79 95.1836 365.2C100.824 334.45 101.874 287 88.6138 214.85C66.2339 92.99 86.024 49.29 95.5635 36.16C96.646 34.6819 98.061 33.4792 99.694 32.6488C101.327 31.8185 103.132 31.3838 104.964 31.38H346.003C347.802 31.3787 349.576 31.7955 351.186 32.5974C352.795 33.3992 354.197 34.5642 355.279 36.0004C356.361 37.4367 357.095 39.1048 357.422 40.8731C357.749 42.6415 357.66 44.4617 357.164 46.19C347.054 81.14 326.244 173.75 351.204 278.57C369.764 356.52 361.134 388.08 350.624 400.83Z" fill="#3F3D56"/>
<path d="M291.24 178.14C298.42 178.14 304.24 172.32 304.24 165.14C304.24 157.96 298.42 152.14 291.24 152.14C284.06 152.14 278.24 157.96 278.24 165.14C278.24 172.32 284.06 178.14 291.24 178.14Z" fill="#6C63FF"/>
<path d="M297.24 219.14C304.42 219.14 310.24 213.32 310.24 206.14C310.24 198.96 304.42 193.14 297.24 193.14C290.06 193.14 284.24 198.96 284.24 206.14C284.24 213.32 290.06 219.14 297.24 219.14Z" fill="#6C63FF"/>
<path d="M289.415 169.887C289.123 169.888 288.838 169.793 288.604 169.618L288.59 169.607L285.534 167.268C285.393 167.159 285.273 167.024 285.184 166.87C285.094 166.715 285.036 166.545 285.012 166.368C284.988 166.191 285 166.011 285.046 165.839C285.092 165.666 285.171 165.504 285.28 165.363C285.388 165.221 285.524 165.102 285.679 165.013C285.833 164.923 286.004 164.865 286.181 164.842C286.358 164.819 286.538 164.831 286.71 164.877C286.883 164.924 287.044 165.004 287.185 165.113L289.164 166.63L293.841 160.531C293.949 160.39 294.084 160.271 294.239 160.182C294.393 160.093 294.563 160.035 294.74 160.012C294.917 159.988 295.096 160 295.269 160.046C295.441 160.092 295.602 160.172 295.744 160.28L295.715 160.32L295.744 160.281C296.03 160.5 296.216 160.824 296.264 161.18C296.311 161.537 296.214 161.898 295.996 162.184L290.495 169.357C290.368 169.523 290.204 169.656 290.017 169.748C289.83 169.84 289.624 169.888 289.415 169.887Z" fill="white"/>
<path d="M295.415 210.887C295.123 210.888 294.838 210.793 294.604 210.618L294.59 210.607L291.534 208.268C291.393 208.159 291.273 208.024 291.184 207.87C291.094 207.715 291.036 207.545 291.012 207.368C290.988 207.191 291 207.011 291.046 206.839C291.092 206.666 291.171 206.504 291.28 206.363C291.388 206.221 291.524 206.102 291.679 206.013C291.833 205.923 292.004 205.865 292.181 205.842C292.358 205.819 292.538 205.831 292.71 205.877C292.883 205.924 293.044 206.004 293.185 206.113L295.164 207.63L299.841 201.531C299.949 201.39 300.084 201.271 300.239 201.182C300.393 201.093 300.563 201.035 300.74 201.012C300.917 200.988 301.096 201 301.269 201.046C301.441 201.092 301.602 201.172 301.744 201.28L301.715 201.32L301.744 201.281C302.03 201.5 302.216 201.824 302.264 202.18C302.311 202.537 302.214 202.898 301.996 203.184L296.495 210.357C296.368 210.523 296.204 210.656 296.017 210.748C295.83 210.84 295.624 210.888 295.415 210.887Z" fill="white"/>
<path d="M206.536 78.552C208.776 78.552 210.408 78.992 211.432 79.872C212.456 80.752 212.968 81.992 212.968 83.592C212.968 84.536 212.752 85.424 212.32 86.256C211.904 87.072 211.192 87.736 210.184 88.248C209.192 88.76 207.84 89.016 206.128 89.016H204.16V95.688H202V78.552H206.536ZM206.344 80.4H204.16V87.168H205.888C207.52 87.168 208.736 86.904 209.536 86.376C210.336 85.848 210.736 84.952 210.736 83.688C210.736 82.584 210.384 81.76 209.68 81.216C208.976 80.672 207.864 80.4 206.344 80.4ZM222.243 82.584C222.483 82.584 222.739 82.6 223.011 82.632C223.299 82.648 223.547 82.68 223.755 82.728L223.491 84.672C223.283 84.624 223.051 84.584 222.795 84.552C222.555 84.52 222.323 84.504 222.099 84.504C221.443 84.504 220.827 84.688 220.251 85.056C219.675 85.408 219.211 85.912 218.859 86.568C218.523 87.208 218.355 87.96 218.355 88.824V95.688H216.243V82.824H217.971L218.211 85.176H218.307C218.723 84.472 219.259 83.864 219.915 83.352C220.571 82.84 221.347 82.584 222.243 82.584ZM227.237 78C227.557 78 227.837 78.112 228.077 78.336C228.333 78.544 228.461 78.88 228.461 79.344C228.461 79.792 228.333 80.128 228.077 80.352C227.837 80.576 227.557 80.688 227.237 80.688C226.885 80.688 226.589 80.576 226.349 80.352C226.109 80.128 225.989 79.792 225.989 79.344C225.989 78.88 226.109 78.544 226.349 78.336C226.589 78.112 226.885 78 227.237 78ZM228.269 82.824V95.688H226.157V82.824H228.269ZM243.529 89.232C243.529 91.36 242.985 93.008 241.897 94.176C240.825 95.344 239.369 95.928 237.529 95.928C236.393 95.928 235.377 95.672 234.481 95.16C233.601 94.632 232.905 93.872 232.393 92.88C231.881 91.872 231.625 90.656 231.625 89.232C231.625 87.104 232.161 85.464 233.233 84.312C234.305 83.16 235.761 82.584 237.601 82.584C238.769 82.584 239.793 82.848 240.673 83.376C241.569 83.888 242.265 84.64 242.761 85.632C243.273 86.608 243.529 87.808 243.529 89.232ZM233.809 89.232C233.809 90.752 234.105 91.96 234.697 92.856C235.305 93.736 236.265 94.176 237.577 94.176C238.873 94.176 239.825 93.736 240.433 92.856C241.041 91.96 241.345 90.752 241.345 89.232C241.345 87.712 241.041 86.52 240.433 85.656C239.825 84.792 238.865 84.36 237.553 84.36C236.241 84.36 235.289 84.792 234.697 85.656C234.105 86.52 233.809 87.712 233.809 89.232ZM252.876 82.584C253.116 82.584 253.372 82.6 253.644 82.632C253.932 82.648 254.18 82.68 254.388 82.728L254.124 84.672C253.916 84.624 253.684 84.584 253.428 84.552C253.188 84.52 252.956 84.504 252.732 84.504C252.076 84.504 251.46 84.688 250.884 85.056C250.308 85.408 249.844 85.912 249.492 86.568C249.156 87.208 248.988 87.96 248.988 88.824V95.688H246.876V82.824H248.604L248.844 85.176H248.94C249.356 84.472 249.892 83.864 250.548 83.352C251.204 82.84 251.98 82.584 252.876 82.584ZM257.87 78C258.19 78 258.47 78.112 258.71 78.336C258.966 78.544 259.094 78.88 259.094 79.344C259.094 79.792 258.966 80.128 258.71 80.352C258.47 80.576 258.19 80.688 257.87 80.688C257.518 80.688 257.222 80.576 256.982 80.352C256.742 80.128 256.622 79.792 256.622 79.344C256.622 78.88 256.742 78.544 256.982 78.336C257.222 78.112 257.518 78 257.87 78ZM258.902 82.824V95.688H256.79V82.824H258.902ZM267.274 94.2C267.594 94.2 267.922 94.176 268.258 94.128C268.594 94.064 268.866 94 269.074 93.936V95.544C268.85 95.656 268.53 95.744 268.114 95.808C267.698 95.888 267.298 95.928 266.914 95.928C266.242 95.928 265.618 95.816 265.042 95.592C264.482 95.352 264.026 94.944 263.674 94.368C263.322 93.792 263.146 92.984 263.146 91.944V84.456H261.322V83.448L263.17 82.608L264.01 79.872H265.258V82.824H268.978V84.456H265.258V91.896C265.258 92.68 265.442 93.264 265.81 93.648C266.194 94.016 266.682 94.2 267.274 94.2ZM272.73 78C273.05 78 273.33 78.112 273.57 78.336C273.826 78.544 273.954 78.88 273.954 79.344C273.954 79.792 273.826 80.128 273.57 80.352C273.33 80.576 273.05 80.688 272.73 80.688C272.378 80.688 272.082 80.576 271.842 80.352C271.602 80.128 271.482 79.792 271.482 79.344C271.482 78.88 271.602 78.544 271.842 78.336C272.082 78.112 272.378 78 272.73 78ZM273.762 82.824V95.688H271.65V82.824H273.762ZM286.141 95.688H276.733V94.296L283.645 84.456H277.141V82.824H285.973V84.408L279.157 94.056H286.141V95.688ZM294.078 82.584C295.182 82.584 296.126 82.824 296.91 83.304C297.71 83.784 298.318 84.464 298.734 85.344C299.166 86.208 299.382 87.224 299.382 88.392V89.664H290.574C290.606 91.12 290.974 92.232 291.678 93C292.398 93.752 293.398 94.128 294.678 94.128C295.494 94.128 296.214 94.056 296.838 93.912C297.478 93.752 298.134 93.528 298.806 93.24V95.088C298.15 95.376 297.502 95.584 296.862 95.712C296.222 95.856 295.462 95.928 294.582 95.928C293.366 95.928 292.286 95.68 291.342 95.184C290.414 94.688 289.686 93.952 289.158 92.976C288.646 91.984 288.39 90.776 288.39 89.352C288.39 87.944 288.622 86.736 289.086 85.728C289.566 84.72 290.23 83.944 291.078 83.4C291.942 82.856 292.942 82.584 294.078 82.584ZM294.054 84.312C293.046 84.312 292.246 84.64 291.654 85.296C291.078 85.936 290.734 86.832 290.622 87.984H297.174C297.158 86.896 296.902 86.016 296.406 85.344C295.91 84.656 295.126 84.312 294.054 84.312Z" fill="black"/>
<path d="M127.9 62.5L133.15 73H122.65L127.9 62.5Z" fill="#FF00E5"/>
<path d="M138.4 62.5L143.65 73H133.15L138.4 62.5Z" fill="#DB00FF"/>
<path d="M148.9 62.5L154.15 73H143.65L148.9 62.5Z" fill="#AD00FF"/>
<path d="M159.4 62.5L164.65 73H154.15L159.4 62.5Z" fill="#7000FF"/>
<path d="M164.65 73L169.9 83.5H159.4L164.65 73Z" fill="#1703FF"/>
<path d="M159.4 83.5L164.65 94H154.15L159.4 83.5Z" fill="#031CFF"/>
<path d="M154.15 94L159.4 104.5H148.9L154.15 94Z" fill="#0047FF"/>
<path d="M143.65 94L148.9 104.5H138.4L143.65 94Z" fill="#0085FF"/>
<path d="M133.15 94L138.4 104.5H127.9L133.15 94Z" fill="#00B2FF"/>
<path d="M127.9 104.5L133.15 115H122.65L127.9 104.5Z" fill="#00D1FF"/>
<path d="M122.65 115L127.9 125.5H117.4L122.65 115Z" fill="#00FFFF"/>
<path d="M127.9 62.5H138.4L133.15 73L127.9 62.5Z" fill="#FF00F5"/>
<path d="M138.4 62.5H148.9L143.65 73L138.4 62.5Z" fill="#CC00FF"/>
<path d="M148.9 62.5H159.4L154.15 73L148.9 62.5Z" fill="#8F00FF"/>
<path d="M154.15 73H164.65L159.4 83.5L154.15 73Z" fill="#4200FF"/>
<path d="M159.4 83.5H169.9L164.65 94L159.4 83.5Z" fill="#0803FF"/>
<path d="M154.15 94H164.65L159.4 104.5L154.15 94Z" fill="#0029FF"/>
<path d="M143.65 94H154.15L148.9 104.5L143.65 94Z" fill="#0075FF"/>
<path d="M133.15 94H143.65L138.4 104.5L133.15 94Z" fill="#0094FF"/>
<path d="M127.9 104.5H138.4L133.15 115L127.9 104.5Z" fill="#00C2FF"/>
<path d="M122.65 115H133.15L127.9 125.5L122.65 115Z" fill="#00E0FF"/>
</svg>
