<svg width="961" height="689" viewBox="0 0 961 689" fill="none" xmlns="http://www.w3.org/2000/svg">
<g clip-path="url(#clip0)">
<rect width="756" height="526" rx="11" fill="white"/>
<rect x="1" y="3" width="753" height="43" rx="4" fill="#FF00FF" fill-opacity="0.5"/>
<path d="M956.427 224.915C943.171 271.527 904.464 304.156 864.087 331.874C858.45 335.744 852.81 339.526 847.169 343.219C847.131 343.236 847.091 343.272 847.053 343.29C846.781 343.466 846.509 343.643 846.256 343.821C845.092 344.582 843.928 345.343 842.773 346.095L843.407 346.384C843.407 346.384 844.03 346.719 843.349 346.438C843.146 346.352 842.933 346.274 842.731 346.188C819.275 336.599 795.402 326.304 777.426 308.342C758.779 289.689 747.882 260.433 757.979 235.929C759.307 232.719 760.983 229.669 762.978 226.836C763.797 225.648 764.679 224.511 765.597 223.395C771.167 216.506 778.446 211.244 786.688 208.151C794.929 205.058 803.834 204.245 812.488 205.797C821.142 207.349 829.231 211.209 835.925 216.98C842.619 222.751 847.676 230.225 850.575 238.634C853.541 210.64 830.767 187.192 808.851 169.89C786.925 152.597 762.01 133.765 757.771 105.927C755.404 90.438 760.718 75.4279 770.398 63.3783C770.698 63.0122 770.997 62.6466 771.306 62.2905C783.09 48.2563 799.663 39.2444 817.716 37.0548C851.337 33.5132 883.995 51.5507 908.42 75.2439C947.731 113.365 971.497 171.918 956.427 224.915Z" fill="#EE00FF"/>
<path d="M893.232 163.948C899.684 174.123 904.638 185.197 907.938 196.822C910.727 207.211 911.969 217.966 911.622 228.727C911.017 250.848 904.302 272.464 893.736 291.717C885.562 306.315 875.6 319.808 864.087 331.874C858.45 335.745 852.81 339.526 847.169 343.219C847.131 343.236 847.092 343.272 847.053 343.29C846.781 343.466 846.509 343.643 846.257 343.821C845.092 344.582 843.928 345.343 842.773 346.095C842.773 346.095 844.03 346.719 843.349 346.438C843.146 346.352 842.933 346.274 842.731 346.188C844.833 328.718 842.774 310.993 836.725 294.496C830.676 277.999 820.815 263.212 807.967 251.374C795.087 239.716 779.672 231.308 762.978 226.836C763.797 225.648 764.679 224.511 765.597 223.396C772.045 225.228 778.32 227.635 784.349 230.588C805.903 241.078 823.551 258.324 834.681 279.772C844.67 299.247 848.968 321.206 847.073 343.072C848.037 342.186 849.002 341.282 849.937 340.386C867.762 323.543 883.593 304.21 894.307 281.898C903.602 263.003 908.171 242.081 907.61 220.976C906.736 197.962 897.689 176.645 884.59 158.088C870.559 138.228 852.968 120.656 834.183 105.434C814.943 89.8146 793.889 76.6402 771.492 66.2046C770.986 65.9656 770.591 65.539 770.388 65.013C770.184 64.487 770.188 63.9018 770.398 63.3785C770.548 62.9089 770.874 62.5179 771.306 62.2907C771.528 62.1935 771.769 62.1485 772.011 62.1589C772.253 62.1693 772.49 62.2349 772.703 62.3508C775.468 63.6412 778.215 64.9492 780.939 66.3137C803.628 77.6806 824.837 91.8603 844.077 108.527C862.662 124.587 880.158 142.935 893.232 163.948Z" fill="white"/>
<path d="M755.363 42.9428H1.50946V46.0052H755.363V42.9428Z" fill="#3F3D56"/>
<path d="M679.192 32.1631C684.198 32.1631 688.256 28.0498 688.256 22.9758C688.256 17.9018 684.198 13.7885 679.192 13.7885C674.186 13.7885 670.128 17.9018 670.128 22.9758C670.128 28.0498 674.186 32.1631 679.192 32.1631Z" fill="#3F3D56"/>
<path d="M705.252 32.1631C710.258 32.1631 714.316 28.0498 714.316 22.9758C714.316 17.9018 710.258 13.7885 705.252 13.7885C700.246 13.7885 696.188 17.9018 696.188 22.9758C696.188 28.0498 700.246 32.1631 705.252 32.1631Z" fill="#3F3D56"/>
<path d="M731.312 32.1631C736.318 32.1631 740.376 28.0498 740.376 22.9758C740.376 17.9018 736.318 13.7885 731.312 13.7885C726.306 13.7885 722.248 17.9018 722.248 22.9758C722.248 28.0498 726.306 32.1631 731.312 32.1631Z" fill="#3F3D56"/>
<path d="M746.297 -3.05176e-05H10.5646C7.76163 0.00429155 5.07485 1.13575 3.09413 3.14594C1.11341 5.15614 0.000615413 7.88079 0 10.7218V516.028C0.00353123 518.867 1.11771 521.588 3.0982 523.596C5.07869 525.603 7.7638 526.732 10.5646 526.736H560.737C560.598 525.721 560.487 524.693 560.376 523.678H10.5646C8.56327 523.677 6.64442 522.87 5.22924 521.436C3.81405 520.001 3.01817 518.056 3.01633 516.028V10.7218C3.01763 8.69184 3.81289 6.74523 5.22779 5.30854C6.6427 3.87186 8.56183 3.0623 10.5646 3.05731H746.297C748.301 3.05943 750.224 3.86761 751.641 5.30452C753.059 6.74143 753.856 8.6897 753.858 10.7218V320.415C754.859 320.485 755.874 320.57 756.875 320.668V10.7218C756.874 7.87854 755.759 5.15216 753.775 3.14173C751.792 1.1313 749.102 0.00127613 746.297 -3.05176e-05Z" fill="#3F3D56"/>
<path d="M560.308 527.428C560.168 526.425 560.057 525.407 559.945 524.404C559.917 524.25 559.903 524.111 559.889 523.958C559.485 520.292 559.192 516.59 559.011 512.85C558.245 516.069 557.553 519.303 556.935 522.55C556.976 523.024 557.018 523.484 557.073 523.958C557.088 524.111 557.101 524.25 557.129 524.404C557.241 525.407 557.353 526.425 557.492 527.428C557.882 530.536 558.356 533.602 558.914 536.655C558.927 536.529 558.942 536.418 558.955 536.292C559.346 533.351 559.792 530.425 560.321 527.498C560.31 527.476 560.306 527.452 560.308 527.428ZM756.993 320.78C755.989 320.683 754.971 320.599 753.967 320.53C753.814 320.516 753.675 320.516 753.522 320.502C749.061 320.167 744.545 320 740 320C714.272 320.008 688.831 325.409 665.32 335.855C641.808 346.3 620.748 361.558 603.498 380.644C586.248 399.73 573.192 422.219 565.171 446.662C557.151 471.104 554.345 496.956 556.935 522.55C556.976 523.024 557.018 523.484 557.073 523.958C557.088 524.111 557.101 524.25 557.129 524.404C557.241 525.407 557.352 526.425 557.492 527.428C557.882 530.536 558.356 533.602 558.914 536.655C564.452 566.915 577.459 595.314 596.755 619.275C616.051 643.236 641.025 662 669.411 673.867C672.311 675.065 675.238 676.208 678.207 677.254C680.159 677.964 682.11 678.619 684.089 679.247C685.511 679.707 686.947 680.139 688.383 680.557C690.418 681.156 692.481 681.727 694.558 682.257C720.036 688.793 746.624 689.763 772.51 685.102C798.397 680.441 822.976 670.258 844.573 655.247H844.588C869.079 638.339 889.101 615.74 902.933 589.391C916.765 563.042 923.994 533.73 924 503.972C924 408.251 850.512 329.38 756.993 320.78ZM843.375 652.696C834.858 658.642 825.842 663.842 816.43 668.236C809.666 671.401 802.711 674.138 795.604 676.431C763.537 686.749 729.23 687.94 696.523 679.874C694.07 679.274 691.636 678.619 689.219 677.909C686.836 677.212 684.475 676.473 682.138 675.693C680.228 675.038 678.318 674.369 676.423 673.658C674.443 672.905 672.492 672.125 670.541 671.316C641.187 659.086 615.559 639.366 596.217 614.128C576.875 588.89 564.498 559.018 560.321 527.498C560.31 527.476 560.306 527.452 560.308 527.428C560.168 526.425 560.057 525.407 559.945 524.404C559.917 524.25 559.904 524.111 559.889 523.958C559.485 520.292 559.192 516.59 559.011 512.85C558.858 509.909 558.784 506.95 558.788 503.972C558.841 455.935 577.949 409.88 611.922 375.913C645.894 341.946 691.956 322.84 740 322.787C744.545 322.787 749.061 322.955 753.522 323.289C753.675 323.303 753.814 323.317 753.968 323.331C754.971 323.401 755.989 323.484 756.993 323.582C848.979 332.167 921.212 409.784 921.212 503.972C921.209 533.203 914.127 561.998 900.572 587.897C887.017 613.796 867.392 636.029 843.375 652.696ZM676.423 673.658C674.443 672.905 672.492 672.125 670.541 671.316C641.187 659.086 615.559 639.366 596.217 614.128C576.875 588.89 564.498 559.018 560.321 527.498C559.792 530.425 559.346 533.351 558.955 536.292C558.942 536.418 558.928 536.529 558.914 536.655C564.452 566.915 577.459 595.314 596.755 619.275C616.051 643.236 641.025 662 669.411 673.867C672.311 675.065 675.238 676.208 678.207 677.254C677.594 676.069 676.994 674.87 676.423 673.658ZM753.521 320.502C749.061 320.167 744.545 320 740 320C714.272 320.008 688.831 325.409 665.319 335.855C641.808 346.3 620.748 361.558 603.498 380.644C586.248 399.73 573.192 422.219 565.171 446.662C557.151 471.104 554.345 496.956 556.935 522.55C556.976 523.024 557.018 523.484 557.073 523.958C557.088 524.111 557.101 524.25 557.129 524.404H559.945C559.917 524.25 559.903 524.111 559.889 523.958C559.485 520.292 559.192 516.59 559.011 512.85C558.858 509.909 558.784 506.95 558.788 503.972C558.84 455.935 577.949 409.88 611.922 375.913C645.894 341.946 691.956 322.84 740 322.787C744.545 322.787 749.061 322.955 753.521 323.289C753.675 323.303 753.814 323.317 753.967 323.331V320.53C753.814 320.516 753.675 320.516 753.522 320.502H753.521Z" fill="#3F3D56"/>
<g clip-path="url(#clip1)">
<path d="M921 504C921.032 528.502 916.073 552.753 906.424 575.275L905.824 576.657C889.502 613.788 861.201 644.374 825.445 663.523C789.69 682.672 748.546 689.278 708.593 682.285C707.506 682.092 706.42 681.892 705.337 681.685C694.141 679.515 683.178 676.282 672.596 672.03C670.877 671.339 669.171 670.624 667.477 669.883C666.32 669.379 665.163 668.86 664.017 668.324C632.669 653.795 606.127 630.607 587.521 601.493C568.914 572.379 559.018 538.552 559 504C559 404.038 640.038 323 740 323C839.962 323 921 404.038 921 504Z" fill="#6C63FF"/>
<g style="mix-blend-mode:screen" opacity="0.2">
<path d="M708.593 682.285C707.506 682.092 706.42 681.892 705.337 681.685C704.63 661.17 702.204 619.064 693.931 574.965C689.406 550.83 683.124 526.09 674.412 503.973C671.427 496.321 668.017 488.841 664.199 481.568C655.396 464.94 644.718 450.942 631.769 441.459L633.676 438.856C644.445 446.749 654.123 457.831 662.711 472.1C665.287 476.373 667.761 480.932 670.133 485.777C672.677 490.961 675.102 496.464 677.41 502.286C678.883 505.992 680.306 509.826 681.678 513.789C687.655 530.995 692.735 550.626 696.919 572.684C697.845 577.557 698.727 582.549 699.564 587.662C706.049 627.273 708.004 663.896 708.593 682.285Z" fill="#00FF38"/>
</g>
<g style="mix-blend-mode:screen" opacity="0.2">
<path d="M667.477 669.883C666.32 669.379 665.163 668.86 664.017 668.324C662.898 656.169 660.842 641.089 657.083 626.775C655.436 620.346 653.322 614.046 650.758 607.925C646.469 597.884 640.916 589.348 633.735 584.084L635.641 581.487C643.16 586.992 648.959 595.694 653.441 605.874C658.491 617.345 661.859 630.695 664.103 643.45C665.768 652.923 666.818 662.075 667.477 669.883Z" fill="#00FF38"/>
</g>
<g style="mix-blend-mode:screen" opacity="0.2">
<path d="M613.761 441.384C622.66 441.384 629.874 434.17 629.874 425.271C629.874 416.373 622.66 409.159 613.761 409.159C604.863 409.159 597.649 416.373 597.649 425.271C597.649 434.17 604.863 441.384 613.761 441.384Z" fill="#00FF38"/>
</g>
<g style="mix-blend-mode:screen" opacity="0.2">
<path d="M618.95 580.084C627.849 580.084 635.063 572.87 635.063 563.971C635.063 555.073 627.849 547.859 618.95 547.859C610.052 547.859 602.838 555.073 602.838 563.971C602.838 572.87 610.052 580.084 618.95 580.084Z" fill="#00FF38"/>
</g>
<path opacity="0.2" d="M677.729 452.335C674.312 471.612 681.855 489.067 681.855 489.067C681.855 489.067 694.937 475.268 698.353 455.991C701.77 436.714 694.228 419.26 694.228 419.26C694.228 419.26 681.146 433.059 677.729 452.335Z" fill="black"/>
<g style="mix-blend-mode:screen" opacity="0.2">
<path d="M624.18 498.094C642.567 504.817 661.042 500.503 661.042 500.503C661.042 500.503 649.708 485.288 631.321 478.564C612.935 471.841 594.459 476.156 594.459 476.156C594.459 476.156 605.794 491.371 624.18 498.094Z" fill="#00FF38"/>
</g>
<g style="mix-blend-mode:screen" opacity="0.2">
<path d="M621.062 620.918C633.95 625.63 646.918 622.556 646.918 622.556C646.918 622.556 638.992 611.842 626.104 607.129C613.217 602.417 600.249 605.491 600.249 605.491C600.249 605.491 608.175 616.206 621.062 620.918Z" fill="#00FF38"/>
</g>
<path d="M739.628 544.082C778.599 544.082 810.192 512.49 810.192 473.519C810.192 434.548 778.599 402.955 739.628 402.955C700.657 402.955 669.065 434.548 669.065 473.519C669.065 512.49 700.657 544.082 739.628 544.082Z" fill="#FFCA7B"/>
<path d="M712.065 527.544C712.065 527.544 720.885 569.44 720.885 573.851C720.885 578.261 762.782 598.107 762.782 598.107L800.269 591.492L813.499 551.8C813.499 551.8 791.448 518.723 791.448 505.493L712.065 527.544Z" fill="#FFCA7B"/>
<path d="M906.424 575.275L905.824 576.657C889.502 613.788 861.2 644.374 825.445 663.523C789.69 682.672 748.546 689.278 708.593 682.285C707.506 682.092 706.42 681.892 705.337 681.685C694.141 679.515 683.178 676.282 672.596 672.03C670.877 671.339 669.171 670.624 667.477 669.883C666.32 669.379 665.163 668.86 664.017 668.324C653.63 663.512 643.724 657.724 634.431 651.038L626.066 626.775L630.768 623.187L640.439 615.802L650.758 607.925L653.441 605.874L693.931 574.965L696.919 572.684L717.964 556.619L717.969 556.613C717.969 556.613 740.728 593.697 773.806 582.671C806.884 571.645 806.161 540.029 806.161 540.029L906.424 575.275Z" fill="#2F2E41"/>
<path d="M678.436 416.668C678.436 416.668 700.84 368.127 743.78 379.329C786.72 390.531 810.991 407.333 812.858 424.136C814.725 440.939 811.924 466.143 811.924 466.143C811.924 466.143 807.257 431.604 777.385 439.072C747.514 446.539 700.84 440.939 700.84 440.939L693.372 508.149C693.372 508.149 684.97 496.014 675.636 503.482C666.301 510.95 648.565 431.604 678.436 416.668Z" fill="#2F2E41"/>
<path d="M672.596 672.03C670.877 671.339 669.171 670.624 667.477 669.883C666.32 669.379 665.163 668.86 664.017 668.324C646.838 660.358 631.011 649.752 617.113 636.89C622.034 630.186 626.066 626.775 626.066 626.775H659.144L664.103 643.45L672.596 672.03Z" fill="#2F2E41"/>
<path d="M877.448 571.645L905.824 576.657C898.23 593.957 887.974 609.96 875.429 624.087L877.448 571.645Z" fill="#2F2E41"/>
</g>
<path d="M889.076 364.65C945.435 365.625 945.426 450.595 889.075 451.562C832.718 450.586 832.727 365.617 889.076 364.65Z" fill="white"/>
<path d="M889.076 364.65C945.435 365.625 945.426 450.595 889.075 451.562C832.718 450.586 832.727 365.617 889.076 364.65Z" fill="#FF00FF"/>
<path d="M889.077 431.768C888.278 431.767 887.512 431.445 886.947 430.872C886.382 430.3 886.064 429.523 886.063 428.714V412.521C886.063 412.16 885.921 411.814 885.67 411.559C885.418 411.304 885.077 411.16 884.721 411.16H868.745C867.946 411.16 867.179 410.838 866.614 410.265C866.049 409.692 865.731 408.916 865.731 408.105C865.731 407.295 866.049 406.518 866.614 405.946C867.179 405.373 867.946 405.051 868.745 405.051H884.721C885.077 405.051 885.418 404.907 885.67 404.652C885.921 404.397 886.063 404.051 886.063 403.691V387.497C886.063 386.687 886.381 385.91 886.946 385.338C887.511 384.765 888.277 384.443 889.076 384.443C889.875 384.443 890.642 384.765 891.207 385.338C891.772 385.91 892.089 386.687 892.089 387.497V403.691C892.09 404.051 892.231 404.397 892.483 404.652C892.735 404.907 893.076 405.051 893.432 405.051H909.408C910.207 405.051 910.974 405.373 911.539 405.946C912.104 406.518 912.422 407.295 912.422 408.105C912.422 408.916 912.104 409.692 911.539 410.265C910.974 410.838 910.207 411.16 909.408 411.16H893.432C893.076 411.16 892.735 411.304 892.483 411.559C892.231 411.814 892.09 412.16 892.089 412.521V428.714C892.088 429.523 891.771 430.3 891.206 430.872C890.641 431.445 889.875 431.767 889.077 431.768Z" fill="white"/>
</g>
<defs>
<clipPath id="clip0">
<rect width="961" height="689" fill="white"/>
</clipPath>
<clipPath id="clip1">
<rect width="362" height="362" fill="white" transform="translate(559 323)"/>
</clipPath>
</defs>
</svg>
