<svg width="256" height="256" viewBox="0 0 256 256" fill="none" xmlns="http://www.w3.org/2000/svg">
<path d="M69.12 12.8L88.32 51.2H49.92L69.12 12.8Z" fill="#FF00E5"/>
<path d="M107.52 12.8L126.72 51.2H88.32L107.52 12.8Z" fill="#DB00FF"/>
<path d="M145.92 12.8L165.12 51.2H126.72L145.92 12.8Z" fill="#AD00FF"/>
<path d="M184.32 12.8L203.52 51.2H165.12L184.32 12.8Z" fill="#7000FF"/>
<path d="M203.52 51.2L222.72 89.6H184.32L203.52 51.2Z" fill="#1703FF"/>
<path d="M184.32 89.6L203.52 128H165.12L184.32 89.6Z" fill="#031CFF"/>
<path d="M165.12 128L184.32 166.4H145.92L165.12 128Z" fill="#0047FF"/>
<path d="M126.72 128L145.92 166.4H107.52L126.72 128Z" fill="#0085FF"/>
<path d="M88.32 128L107.52 166.4H69.12L88.32 128Z" fill="#00B2FF"/>
<path d="M69.12 166.4L88.32 204.8H49.92L69.12 166.4Z" fill="#00D1FF"/>
<path d="M49.92 204.8L69.12 243.2H30.72L49.92 204.8Z" fill="#00FFFF"/>
<path d="M69.12 12.8H107.52L88.32 51.2L69.12 12.8Z" fill="#FF00F5"/>
<path d="M107.52 12.8H145.92L126.72 51.2L107.52 12.8Z" fill="#CC00FF"/>
<path d="M145.92 12.8H184.32L165.12 51.2L145.92 12.8Z" fill="#8F00FF"/>
<path d="M165.12 51.2H203.52L184.32 89.6L165.12 51.2Z" fill="#4200FF"/>
<path d="M184.32 89.6H222.72L203.52 128L184.32 89.6Z" fill="#0803FF"/>
<path d="M165.12 128H203.52L184.32 166.4L165.12 128Z" fill="#0029FF"/>
<path d="M126.72 128H165.12L145.92 166.4L126.72 128Z" fill="#0075FF"/>
<path d="M88.32 128H126.72L107.52 166.4L88.32 128Z" fill="#0094FF"/>
<path d="M69.12 166.4H107.52L88.32 204.8L69.12 166.4Z" fill="#00C2FF"/>
<path d="M49.92 204.8H88.32L69.12 243.2L49.92 204.8Z" fill="#00E0FF"/>
</svg>
