<svg width="689" height="511" viewBox="0 0 689 511" fill="none" xmlns="http://www.w3.org/2000/svg">
<path d="M293 52H26C19.1044 52 12.4911 49.2607 7.6152 44.3848C2.73926 39.5088 0 32.8956 0 26C0 19.1044 2.73926 12.4912 7.6152 7.61522C12.4911 2.73927 19.1044 0 26 0H293C299.896 0 306.509 2.73927 311.385 7.61522C316.261 12.4912 319 19.1044 319 26C319 32.8956 316.261 39.5088 311.385 44.3848C306.509 49.2607 299.896 52 293 52Z" fill="#BEBEBE"/>
<path d="M26 8.5C21.3587 8.5 16.9075 10.3437 13.6256 13.6256C10.3438 16.9075 8.5 21.3587 8.5 26C8.5 30.6413 10.3438 35.0925 13.6256 38.3744C16.9075 41.6563 21.3587 43.5 26 43.5H293C297.641 43.5 302.092 41.6563 305.374 38.3744C308.656 35.0925 310.5 30.6413 310.5 26C310.5 21.3587 308.656 16.9075 305.374 13.6256C302.092 10.3437 297.641 8.5 293 8.5H26Z" fill="white"/>
<path d="M387.354 1.68109C380.951 1.68107 374.809 4.22495 370.281 8.75313C365.753 13.2813 363.209 19.4228 363.209 25.8267C363.209 32.2305 365.752 38.372 370.281 42.9003C374.809 47.4285 380.95 49.9724 387.354 49.9724C393.758 49.9724 399.9 47.4285 404.428 42.9003C408.956 38.3721 411.5 32.2306 411.5 25.8268C411.5 19.4229 408.956 13.2814 404.428 8.75319C399.9 4.225 393.758 1.68109 387.354 1.68109Z" fill="#FF7F27"/>
<path d="M385.063 35.8546C384.428 35.8557 383.809 35.65 383.3 35.2687L383.269 35.2451L376.629 30.1656C376.321 29.9299 376.063 29.6359 375.869 29.3004C375.675 28.9648 375.549 28.5944 375.498 28.2101C375.447 27.8258 375.472 27.4353 375.572 27.0609C375.673 26.6864 375.845 26.3353 376.081 26.0277C376.317 25.7201 376.611 25.462 376.947 25.2681C377.282 25.0741 377.653 24.9483 378.037 24.8976C378.422 24.8469 378.812 24.8724 379.186 24.9727C379.561 25.073 379.912 25.246 380.219 25.482L384.52 28.7801L394.684 15.521C394.919 15.2136 395.213 14.9557 395.548 14.7618C395.884 14.568 396.254 14.4421 396.638 14.3914C397.022 14.3407 397.412 14.3661 397.787 14.4662C398.161 14.5663 398.512 14.7391 398.819 14.9748L398.82 14.9754L398.757 15.063L398.822 14.9754C399.442 15.4521 399.847 16.1553 399.95 16.9307C400.052 17.7062 399.843 18.4905 399.367 19.1117L387.413 34.7003C387.136 35.0595 386.781 35.3502 386.374 35.5497C385.967 35.7493 385.519 35.8524 385.066 35.8511L385.063 35.8546Z" fill="white"/>
<path d="M293 140H26C19.1044 140 12.4911 137.261 7.6152 132.385C2.73926 127.509 0 120.896 0 114C0 107.104 2.73926 100.491 7.6152 95.6152C12.4911 90.7393 19.1044 88 26 88H293C299.896 88 306.509 90.7393 311.385 95.6152C316.261 100.491 319 107.104 319 114C319 120.896 316.261 127.509 311.385 132.385C306.509 137.261 299.896 140 293 140Z" fill="#BEBEBE"/>
<path d="M26 96.5C21.3587 96.5 16.9075 98.3438 13.6256 101.626C10.3438 104.908 8.5 109.359 8.5 114C8.5 118.641 10.3438 123.092 13.6256 126.374C16.9075 129.656 21.3587 131.5 26 131.5H293C297.641 131.5 302.092 129.656 305.374 126.374C308.656 123.092 310.5 118.641 310.5 114C310.5 109.359 308.656 104.908 305.374 101.626C302.092 98.3438 297.641 96.5 293 96.5H26Z" fill="white"/>
<path d="M387.354 89.6811C380.951 89.6811 374.809 92.225 370.281 96.7531C365.753 101.281 363.209 107.423 363.209 113.827C363.209 120.231 365.752 126.372 370.281 130.9C374.809 135.428 380.95 137.972 387.354 137.972C393.758 137.972 399.9 135.429 404.428 130.9C408.956 126.372 411.5 120.231 411.5 113.827C411.5 107.423 408.956 101.281 404.428 96.7532C399.9 92.225 393.758 89.6811 387.354 89.6811Z" fill="#FF7F27"/>
<path d="M385.063 123.855C384.428 123.856 383.809 123.65 383.3 123.269L383.269 123.245L376.629 118.166C376.321 117.93 376.063 117.636 375.869 117.3C375.675 116.965 375.549 116.594 375.498 116.21C375.447 115.826 375.472 115.435 375.572 115.061C375.673 114.686 375.845 114.335 376.081 114.028C376.317 113.72 376.611 113.462 376.947 113.268C377.282 113.074 377.653 112.948 378.037 112.898C378.422 112.847 378.812 112.872 379.186 112.973C379.561 113.073 379.912 113.246 380.219 113.482L384.52 116.78L394.684 103.521C394.919 103.214 395.213 102.956 395.548 102.762C395.884 102.568 396.254 102.442 396.638 102.391C397.022 102.341 397.412 102.366 397.787 102.466C398.161 102.566 398.512 102.739 398.819 102.975L398.82 102.975L398.757 103.063L398.822 102.975C399.442 103.452 399.847 104.155 399.95 104.931C400.052 105.706 399.843 106.491 399.367 107.112L387.413 122.7C387.136 123.06 386.781 123.35 386.374 123.55C385.967 123.749 385.519 123.852 385.066 123.851L385.063 123.855Z" fill="white"/>
<path d="M293 228H26C19.1044 228 12.4911 225.261 7.6152 220.385C2.73926 215.509 0 208.896 0 202C0 195.104 2.73926 188.491 7.6152 183.615C12.4911 178.739 19.1044 176 26 176H293C299.896 176 306.509 178.739 311.385 183.615C316.261 188.491 319 195.104 319 202C319 208.896 316.261 215.509 311.385 220.385C306.509 225.261 299.896 228 293 228Z" fill="#BEBEBE"/>
<path d="M26 184.5C21.3587 184.5 16.9075 186.344 13.6256 189.626C10.3438 192.908 8.5 197.359 8.5 202C8.5 206.641 10.3438 211.092 13.6256 214.374C16.9075 217.656 21.3587 219.5 26 219.5H293C297.641 219.5 302.092 217.656 305.374 214.374C308.656 211.092 310.5 206.641 310.5 202C310.5 197.359 308.656 192.908 305.374 189.626C302.092 186.344 297.641 184.5 293 184.5H26Z" fill="white"/>
<path d="M387.354 177.681C380.951 177.681 374.809 180.225 370.281 184.753C365.753 189.281 363.209 195.423 363.209 201.827C363.209 208.231 365.752 214.372 370.281 218.9C374.809 223.428 380.95 225.972 387.354 225.972H387.354C393.758 225.972 399.9 223.429 404.428 218.9C408.956 214.372 411.5 208.231 411.5 201.827C411.5 195.423 408.956 189.281 404.428 184.753C399.9 180.225 393.758 177.681 387.354 177.681Z" fill="#BEBEBE"/>
<path d="M405.484 275.963C405.423 274.393 405.706 272.829 406.315 271.381C406.923 269.932 407.842 268.635 409.006 267.58C410.17 266.525 411.551 265.738 413.052 265.275C414.553 264.811 416.137 264.683 417.693 264.898L435.034 230.875L444.833 248.131L426.863 277.794C426.329 280.384 424.862 282.688 422.742 284.27C420.622 285.851 417.996 286.6 415.361 286.374C412.725 286.149 410.264 284.964 408.444 283.045C406.624 281.126 405.571 278.607 405.484 275.963L405.484 275.963Z" fill="#FFB7B7"/>
<path d="M486.33 490.198L472.721 490.197L466.247 437.706L486.332 437.707L486.33 490.198Z" fill="#FFB7B7"/>
<path d="M489.8 503.389L445.92 503.388V502.833C445.92 498.303 447.72 493.959 450.923 490.756C454.126 487.553 458.47 485.754 462.999 485.754H463L489.801 485.755L489.8 503.389Z" fill="#2F2E41"/>
<path d="M560.103 490.198L546.494 490.197L540.02 437.706L560.105 437.707L560.103 490.198Z" fill="#FFB7B7"/>
<path d="M563.574 503.389L519.693 503.388V502.833C519.693 498.303 521.493 493.959 524.696 490.756C527.899 487.553 532.243 485.754 536.773 485.754H536.774L563.574 485.755L563.574 503.389Z" fill="#2F2E41"/>
<path d="M426.387 246.353L420.446 256.254C420.446 256.254 430.347 256.254 432.328 271.106L440.249 261.205L426.387 246.353Z" fill="#E5E5E5"/>
<path d="M530.353 225.559C530.353 225.559 546.195 267.146 549.165 292.89C552.136 318.634 557.087 386.954 557.087 386.954L566.988 475.077L539.264 479.038L527.382 389.924L500.648 301.801L494.707 389.924L489.756 470.126L464.013 471.117L462.032 387.944L451.141 281.998L457.082 231.5L530.353 225.559Z" fill="#2F2E41"/>
<path d="M485.796 99.922C499.467 99.922 510.55 88.8394 510.55 75.1683C510.55 61.4972 499.467 50.4146 485.796 50.4146C472.125 50.4146 461.042 61.4972 461.042 75.1683C461.042 88.8394 472.125 99.922 485.796 99.922Z" fill="#FFB7B7"/>
<path d="M511.044 99.3159L520.946 106.246L533.818 235.956L453.616 237.936L464.508 147.833L474.409 122.089L481.556 112.64L511.044 99.3159Z" fill="#00A2E8"/>
<path d="M513.025 192.389L516.055 102.822C516.055 102.822 521.936 103.276 523.917 106.246C525.897 109.217 558.572 115.158 558.572 115.158L552.631 207.242C552.631 207.242 577.385 280.513 568.473 284.473C559.562 288.434 543.72 287.444 543.72 287.444L513.025 192.389Z" fill="#2F2E41"/>
<path d="M465.003 181.003L475.507 120.638L452.131 136.446L458.072 180.013L453.121 209.717C453.121 209.717 434.308 291.9 440.249 294.87C446.19 297.84 453.121 294.87 453.121 294.87L465.003 211.697V181.003Z" fill="#2F2E41"/>
<path d="M459.062 134.466L452.131 136.446L449.16 176.052L444.21 210.707L420.446 253.284C420.446 253.284 432.328 245.362 437.278 268.136L463.449 222.572L459.062 134.466Z" fill="#2F2E41"/>
<path d="M506.518 51.5833L511.186 49.7146C511.186 49.7146 501.426 38.9692 487.847 39.9036L491.666 35.6989C491.666 35.6989 482.33 31.9614 473.843 41.7723C469.382 46.9297 464.22 52.9919 461.002 59.821H456.003L458.089 64.415L450.787 69.009L458.282 68.1838C457.835 70.6995 457.767 73.2678 458.079 75.8038C458.4 78.3405 459.695 80.6532 461.689 82.2535C461.689 82.2535 467.478 70.2708 467.478 68.402V73.0739C467.478 73.0739 472.146 68.8692 472.146 66.0661L474.692 69.3364L475.965 64.1973L491.666 69.3364L489.12 65.1318L498.88 66.5333L495.061 61.3942L510.172 82.6153C510.172 82.6153 518.825 58.5911 506.518 51.5833Z" fill="#2F2E41"/>
<path d="M512.92 267.843C513.164 266.291 513.746 264.812 514.624 263.509C515.502 262.206 516.655 261.112 518.001 260.303C519.348 259.494 520.856 258.99 522.418 258.827C523.981 258.664 525.56 258.845 527.045 259.358L550.66 229.349L556.923 248.179L533.537 273.789C532.509 276.226 530.624 278.202 528.237 279.342C525.85 280.482 523.128 280.706 520.587 279.973C518.046 279.241 515.861 277.601 514.448 275.365C513.035 273.129 512.491 270.453 512.92 267.843V267.843Z" fill="#FFB7B7"/>
<path d="M553.126 257.244L544.215 268.136L532.333 247.343L537.283 238.432L553.126 257.244Z" fill="#E5E5E5"/>
<path d="M551.146 118.623L559.067 114.663C559.067 114.663 565.008 122.584 565.998 129.515C566.988 136.446 571.939 145.357 571.939 150.308C571.939 155.259 585.801 201.796 585.801 201.796L554.116 266.156C554.116 266.156 547.185 242.392 532.333 240.412L557.087 205.756L543.225 181.003L551.146 118.623Z" fill="#2F2E41"/>
<path d="M405.934 273.784C416.391 273.784 424.868 265.307 424.868 254.85C424.868 244.393 416.391 235.915 405.934 235.915C395.477 235.915 387 244.393 387 254.85C387 265.307 395.477 273.784 405.934 273.784Z" fill="#FF7F27"/>
<path d="M404.058 262.072C403.632 262.073 403.217 261.935 402.876 261.68L402.855 261.664L398.405 258.26C398.199 258.102 398.026 257.905 397.896 257.68C397.766 257.455 397.681 257.207 397.647 256.949C397.613 256.692 397.63 256.43 397.697 256.179C397.764 255.928 397.88 255.693 398.038 255.487C398.196 255.28 398.393 255.107 398.618 254.977C398.843 254.847 399.092 254.763 399.349 254.729C399.607 254.695 399.869 254.712 400.119 254.78C400.37 254.847 400.606 254.963 400.812 255.121L403.694 257.331L410.505 248.446C410.663 248.24 410.86 248.067 411.084 247.937C411.309 247.807 411.557 247.723 411.815 247.689C412.072 247.655 412.333 247.672 412.584 247.739C412.835 247.806 413.07 247.922 413.276 248.08L413.277 248.08L413.234 248.139L413.278 248.08C413.693 248.4 413.965 248.871 414.034 249.391C414.102 249.91 413.962 250.436 413.643 250.852L405.632 261.299C405.447 261.54 405.209 261.734 404.936 261.868C404.663 262.002 404.363 262.071 404.059 262.07L404.058 262.072Z" fill="white"/>
<path d="M482.936 103C482.936 105.8 482.936 108.6 482.936 111.4C482.936 112.373 483.264 113.554 482.434 114.304C481.755 114.917 481 116.176 481 117" stroke="#00A2E8" stroke-width="3" stroke-linecap="round"/>
<path d="M507 94C507.776 96.038 508.584 98.6112 510.138 100.165C510.628 100.656 510.703 102.06 511.504 102.288C511.995 102.429 513.118 102.582 513.313 102.971" stroke="#00A2E8" stroke-width="3" stroke-linecap="round"/>
<path d="M483 101.5C487 100.815 488 101.5 491.5 100.815C491.5 100.815 497 99 498.5 98C498.5 98 506.5 90.5 506.5 93.5" stroke="#00A2E8" stroke-width="3" stroke-linecap="round"/>
<path d="M489.686 107.133C488.894 107.902 488.496 108.724 487.939 109.664C487.766 109.956 487.766 109.692 487.731 109.352C487.663 108.698 487.681 108.043 487.646 107.388C487.634 107.15 487.601 107.27 487.552 107.454C487.253 108.567 487.003 109.698 486.725 110.816C486.461 111.881 486.209 112.947 485.955 114.014C485.929 114.124 485.861 114.453 485.861 114.34C485.861 114.123 485.937 113.762 485.856 113.56C485.851 113.548 485.54 114.535 485.474 114.529C485.325 114.515 485.364 114.247 485.346 114.099C485.262 113.379 485.221 112.446 485.19 111.756C485.129 110.362 485.218 108.9 484.964 107.52C484.924 107.307 484.926 107.359 484.926 107.511C484.926 107.904 484.927 108.298 484.907 108.691C484.895 108.93 484.964 109.662 484.775 109.872C484.755 109.894 484.564 108.297 484.548 108.106C484.492 107.439 484.416 106.782 484.416 106.113C484.416 105.253 484.076 104.436 484.076 103.562C484.076 102.942 485.136 102.699 485.445 103.279C485.795 103.935 486.141 104.485 486.196 105.258C486.219 105.571 486.261 105.881 486.281 106.193C486.296 106.407 486.211 106.765 486.305 106.963C486.395 107.153 486.576 107.388 486.796 107.388C487.376 107.388 487.136 105.651 487.136 105.272C487.136 104.533 486.667 103.892 486.711 103.137C486.746 102.537 488.189 103.434 488.298 103.553C488.601 103.884 488.938 104.222 489.025 104.668C489.077 104.929 489.187 105.132 489.299 105.357C489.775 106.309 490.38 107.133 491.557 107.133C492.386 107.133 491.71 104.896 491.557 104.431C491.437 104.07 491.277 103.401 490.834 103.303C490.522 103.233 490.23 103.222 489.899 103.222C488.975 103.222 489.377 107.439 489.431 107.945C489.472 108.324 489.867 109.991 490.451 110.023C491.241 110.067 491.617 110.088 492.326 109.494C493.365 108.624 494.567 107.154 494.433 105.702C494.34 104.697 493.955 103.673 493.602 102.731C493.557 102.612 493.442 102.406 493.427 102.287C493.406 102.121 493.011 102.008 493.295 101.862C493.605 101.703 494.498 101.279 494.792 101.664C495.594 102.717 495.84 104.122 496.742 105.13C497.036 105.459 497.317 105.332 497.592 105.008C497.924 104.617 497.729 103.722 497.592 103.312C497.356 102.602 496.987 101.874 496.539 101.277C496.457 101.167 496.278 100.361 496.525 100.436C497.384 100.699 498.121 101.9 498.442 102.693C498.614 103.118 498.654 103.941 499.16 104.11C499.618 104.263 500.718 104.336 500.738 103.647C500.76 102.856 500.115 102.161 499.67 101.56C499.358 101.138 499.17 100.741 498.952 100.285C498.816 99.998 498.612 99.5101 498.612 99.1844C498.612 98.7199 499.633 98.5543 499.972 98.4808C500.274 98.4155 500.572 98.5421 500.794 98.7452C501.409 99.3065 501.963 100.088 502.296 100.852C502.556 101.449 502.8 101.912 503.241 102.41C503.735 102.968 505.065 105.048 505.375 103.203C505.55 102.164 505.233 100.996 504.941 100.011C504.785 99.486 504.576 98.6807 504.223 98.2446C503.637 97.5212 502.782 97.1494 502.055 96.5492C501.88 96.4041 501.477 96.1154 501.422 95.8691C501.325 95.43 502.43 94.601 502.697 94.3389C503.302 93.7459 503.926 93.148 504.695 92.7852C505.071 92.6077 505.336 92.6211 505.517 92.9835C505.773 93.4966 504.968 93.8158 504.61 94.1736C504.492 94.2922 504.563 94.6898 504.563 94.849C504.563 95.2637 504.574 95.4624 504.884 95.7605C505.922 96.7585 507.197 97.45 508.214 98.4666C508.335 98.5877 508.684 99.0049 508.724 99.1844C508.814 99.5929 508.419 99.482 508.133 99.482C507.383 99.482 506.88 98.6121 506.476 98.1265C506.271 97.8808 506.369 98.2362 506.405 98.4194C506.56 99.2095 506.695 99.9729 506.816 100.767C506.864 101.083 506.943 101.469 506.943 101.777" stroke="#00A2E8" stroke-width="3" stroke-linecap="round"/>
<path d="M483.056 107.983C483.056 107.322 483.311 106.826 483.311 106.16C483.311 105.966 483.374 105.643 483.245 105.499C483.164 105.409 482.977 104.959 482.971 104.838C482.94 104.289 482.886 103.747 482.886 103.18C482.886 102.92 482.76 101.883 482.971 101.777" stroke="#00A2E8" stroke-width="3" stroke-linecap="round"/>
</svg>
